<svg id="Layer_1" xmlns="http://www.w3.org/2000/svg" viewBox="0 0 500 500"><style>.st0{opacity:.15}</style><path d="M342.1 417c-19.2 0-37.7-8.3-51.2-21.8l-169.2-169c-15.5-15.7-24.6-37-24.6-59 0-46.2 36.4-83 82.5-83 22.2 0 43.6 8.9 59.5 24.6l131.8 132c1.3 1.3 2.2 3 2.2 4.8 0 4.6-12.2 16.8-16.8 16.8-2 0-3.7-.9-5-2.2L219.2 128c-10.5-10.2-24.6-16.8-39.4-16.8-30.9 0-54.9 25-54.9 55.8 0 14.8 6.1 29 16.6 39.4l169 169.2c8.3 8.3 19.8 13.7 31.6 13.7 18.5 0 32.2-13.7 32.2-32.2 0-12-5.4-23.3-13.7-31.6L234 199c-3.5-3.3-8.3-5.2-13.1-5.2-8.3 0-14.6 6.1-14.6 14.6 0 4.8 2.2 9.4 5.4 12.9l89.3 89.3c1.3 1.3 2.2 3 2.2 4.8 0 4.6-12.4 17-17 17-1.7 0-3.5-.9-4.8-2.2l-89.3-89.3c-8.7-8.5-13.7-20.5-13.7-32.5 0-24 18.7-42.7 42.7-42.7 12.2 0 24 5 32.5 13.7l126.5 126.5c13.7 13.5 21.8 32 21.8 51.2.1 34-25.9 59.9-59.8 59.9z" class="st0"/></svg>