<svg id="Layer_1" xmlns="http://www.w3.org/2000/svg" viewBox="0 0 150.2 147.5"><style>.st0{fill-rule:evenodd;clip-rule:evenodd;fill:#f7d518}</style><path class="st0" d="M72.6 122.8c16.5 25.1 50.1 32.2 75.3 16 .2-.1.3-.2.4-.3 1.9-1.2 2.4-3.8 1.2-5.7-1.2-1.9-3.8-2.4-5.7-1.2-.1.1-.2.2-.3.2-22.7 14.6-53 8.2-67.8-14.4-2-3-3.6-6.1-4.8-9.4-1.7.1-3.3.2-5 .2 1.5 5.2 3.7 10 6.7 14.6zm-2.7-17.5c-5-15.9-1.6-33.5 9.1-46.3-.9-.5-1.8-.9-2.7-1.3-11 13.3-15.2 31.1-11.1 47.8 1.6 0 3.1 0 4.7-.2zm12.4-49.8c2.3-2.3 4.8-4.3 7.6-6.2.6-.4.8-1.3.4-1.9-.4-.6-1.3-.8-1.9-.4-3.2 2.1-6.1 4.4-8.7 7 .9.5 1.7 1 2.6 1.5z"/><path class="st0" d="M119.5 64.8C125.6 35.4 106.9 6.6 77.6.2c-.2-.1-.3-.1-.5-.1-2.2-.5-4.4 1-4.9 3.2s1 4.4 3.2 4.9c.1 0 .3.1.4.1 26.4 5.7 43.3 31.7 37.8 58.1-1.4 6.9-4.2 13.1-8.1 18.5.6 1.7 1 3.3 1.4 5 6.2-6.9 10.6-15.4 12.6-25.1zm-16.3 23c-11.3 13.5-29.4 20.5-47.8 16.6-.7-.2-1.5.3-1.6 1.1-.2.7.3 1.5 1.1 1.6 18.6 3.9 37-2.2 49.6-14.7-.4-1.5-.8-3-1.3-4.6z"/><path class="st0" d="M64.8 48.6C35.4 42.5 6.6 61.2.2 90.5c-.1.2-.1.3-.1.5-.5 2.2 1 4.4 3.2 4.9s4.4-1 4.9-3.2c0-.1 0-.3.1-.4 5.6-26.4 31.5-43.3 58-37.8 26.6 5.5 43.7 31.6 38.2 58.2-.2.7.3 1.5 1.1 1.6.7.2 1.5-.3 1.6-1.1 6.2-29.5-12.8-58.4-42.4-64.6z"/></svg>