<?xml version="1.0" encoding="utf-8"?>
<!-- Generator: Adobe Illustrator 21.1.0, SVG Export Plug-In . SVG Version: 6.00 Build 0)  -->
<svg version="1.1" id="Layer_1" xmlns="http://www.w3.org/2000/svg" xmlns:xlink="http://www.w3.org/1999/xlink" x="0px" y="0px"
	 viewBox="0 0 150.2 147.5" style="enable-background:new 0 0 150.2 147.5;" xml:space="preserve">
<style type="text/css">
	.st0{fill-rule:evenodd;clip-rule:evenodd;fill:#F7D518;}
</style>
<g>
	<path class="st0" d="M72.6,122.8c16.5,25.1,50.1,32.2,75.3,16c0.2-0.1,0.3-0.2,0.4-0.3c1.9-1.2,2.4-3.8,1.2-5.7
		c-1.2-1.9-3.8-2.4-5.7-1.2c-0.1,0.1-0.2,0.2-0.3,0.2c-22.7,14.6-53,8.2-67.8-14.4c-2-3-3.6-6.1-4.8-9.4c-1.7,0.1-3.3,0.2-5,0.2
		C67.4,113.4,69.6,118.2,72.6,122.8L72.6,122.8z M69.9,105.3c-5-15.9-1.6-33.5,9.1-46.3c-0.9-0.5-1.8-0.9-2.7-1.3
		C65.3,71,61.1,88.8,65.2,105.5C66.8,105.5,68.3,105.5,69.9,105.3L69.9,105.3z M82.3,55.5c2.3-2.3,4.8-4.3,7.6-6.2l0,0
		c0.6-0.4,0.8-1.3,0.4-1.9c-0.4-0.6-1.3-0.8-1.9-0.4l0,0c-3.2,2.1-6.1,4.4-8.7,7C80.6,54.5,81.4,55,82.3,55.5L82.3,55.5z"/>
	<path class="st0" d="M119.5,64.8c6.1-29.4-12.6-58.2-41.9-64.6c-0.2-0.1-0.3-0.1-0.5-0.1c-2.2-0.5-4.4,1-4.9,3.2
		c-0.5,2.2,1,4.4,3.2,4.9c0.1,0,0.3,0.1,0.4,0.1c26.4,5.7,43.3,31.7,37.8,58.1c-1.4,6.9-4.2,13.1-8.1,18.5c0.6,1.7,1,3.3,1.4,5
		C113.1,83,117.5,74.5,119.5,64.8L119.5,64.8z M103.2,87.8c-11.3,13.5-29.4,20.5-47.8,16.6l0,0c-0.7-0.2-1.5,0.3-1.6,1.1
		c-0.2,0.7,0.3,1.5,1.1,1.6l0,0c18.6,3.9,37-2.2,49.6-14.7C104.1,90.9,103.7,89.4,103.2,87.8L103.2,87.8z"/>
	<path class="st0" d="M64.8,48.6C35.4,42.5,6.6,61.2,0.2,90.5c-0.1,0.2-0.1,0.3-0.1,0.5c-0.5,2.2,1,4.4,3.2,4.9
		c2.2,0.5,4.4-1,4.9-3.2c0-0.1,0-0.3,0.1-0.4C13.9,65.9,39.8,49,66.3,54.5c26.6,5.5,43.7,31.6,38.2,58.2l0,0
		c-0.2,0.7,0.3,1.5,1.1,1.6c0.7,0.2,1.5-0.3,1.6-1.1l0,0C113.4,83.7,94.4,54.8,64.8,48.6L64.8,48.6z"/>
</g>
</svg>
