<?xml version="1.0" encoding="utf-8"?>
<!-- Generator: Adobe Illustrator 21.1.0, SVG Export Plug-In . SVG Version: 6.00 Build 0)  -->
<svg version="1.1" id="Layer_1" xmlns="http://www.w3.org/2000/svg" xmlns:xlink="http://www.w3.org/1999/xlink" x="0px" y="0px"
	 viewBox="0 0 394 149.2" style="enable-background:new 0 0 394 149.2;" xml:space="preserve">
<style type="text/css">
	.st0{fill:#FFFFFF;}
	.st1{fill:#F7D518;}
</style>
<g>
	<path class="st0" d="M25.7,101.1l6.7,2.1c-1,3.7-2.7,6.5-5.1,8.3c-2.4,1.8-5.4,2.7-9.1,2.7c-4.5,0-8.3-1.5-11.2-4.6
		c-2.9-3.1-4.4-7.3-4.4-12.7c0-5.7,1.5-10.1,4.4-13.2c2.9-3.1,6.8-4.7,11.6-4.7c4.2,0,7.6,1.2,10.2,3.7c1.6,1.5,2.7,3.6,3.5,6.3
		l-6.8,1.6c-0.4-1.8-1.2-3.2-2.5-4.2c-1.3-1-2.8-1.5-4.7-1.5c-2.5,0-4.6,0.9-6.2,2.7c-1.6,1.8-2.4,4.8-2.4,8.8
		c0,4.3,0.8,7.4,2.3,9.2c1.6,1.8,3.6,2.7,6.1,2.7c1.8,0,3.4-0.6,4.7-1.7C24.2,105.5,25.1,103.6,25.7,101.1z"/>
	<path class="st0" d="M36.9,96.8c0-3.5,0.5-6.4,1.6-8.8c0.8-1.7,1.8-3.3,3.2-4.7C43,82,44.4,81,46,80.3c2.1-0.9,4.6-1.4,7.4-1.4
		c5,0,9.1,1.6,12.1,4.7s4.5,7.5,4.5,13c0,5.5-1.5,9.8-4.5,12.9c-3,3.1-7,4.7-12,4.7c-5.1,0-9.1-1.5-12.1-4.6S36.9,102.2,36.9,96.8z
		 M44,96.6c0,3.9,0.9,6.8,2.7,8.8c1.8,2,4.1,3,6.8,3c2.8,0,5-1,6.8-3c1.8-2,2.6-5,2.6-8.9c0-3.9-0.9-6.8-2.6-8.8
		c-1.7-1.9-4-2.9-6.8-2.9s-5.1,1-6.9,2.9C44.9,89.7,44,92.6,44,96.6z"/>
	<path class="st0" d="M75.3,113.7V79.5h10.3l6.2,23.3L98,79.5h10.3v34.2h-6.4V86.8l-6.8,26.9h-6.6l-6.8-26.9v26.9H75.3z"/>
	<path class="st0" d="M115.2,113.7V79.5h11.1c4.2,0,6.9,0.2,8.2,0.5c2,0.5,3.6,1.6,4.9,3.3c1.3,1.7,2,3.9,2,6.7
		c0,2.1-0.4,3.9-1.1,5.3c-0.8,1.4-1.7,2.6-2.9,3.4c-1.2,0.8-2.4,1.4-3.6,1.6c-1.6,0.3-4,0.5-7.2,0.5h-4.5v12.9H115.2z M122.1,85.3
		V95h3.8c2.7,0,4.5-0.2,5.5-0.5c0.9-0.4,1.6-0.9,2.2-1.7s0.8-1.6,0.8-2.7c0-1.2-0.4-2.3-1.1-3.1c-0.7-0.8-1.7-1.3-2.8-1.5
		c-0.8-0.2-2.5-0.2-5-0.2H122.1z"/>
	<path class="st0" d="M174.3,113.7h-7.5l-3-7.8h-13.7l-2.8,7.8H140l13.3-34.2h7.3L174.3,113.7z M161.6,100.2l-4.7-12.7l-4.6,12.7
		H161.6z"/>
	<path class="st0" d="M178,113.7V79.5h6.7l14,22.8V79.5h6.4v34.2h-6.9l-13.8-22.3v22.3H178z"/>
	<path class="st0" d="M221.4,113.7V99.3l-12.5-19.8h8.1l8,13.5l7.9-13.5h7.9l-12.6,19.8v14.3H221.4z"/>
	<path class="st0" d="M256.7,113.7V79.5h6.7l14,22.8V79.5h6.4v34.2h-6.9l-13.8-22.3v22.3H256.7z"/>
	<path class="st0" d="M321.9,113.7h-7.5l-3-7.8h-13.7l-2.8,7.8h-7.3l13.3-34.2h7.3L321.9,113.7z M309.2,100.2l-4.7-12.7l-4.6,12.7
		H309.2z"/>
	<path class="st0" d="M325.4,113.7V79.5h10.3l6.2,23.3l6.1-23.3h10.3v34.2H352V86.8l-6.8,26.9h-6.6l-6.8-26.9v26.9H325.4z"/>
	<path class="st0" d="M365.3,113.7V79.5h25.3v5.8h-18.4v7.6h17.2v5.8h-17.2v9.3h19.1v5.8H365.3z"/>
</g>
<g>
	<path class="st0" d="M166.9,143.5v-12.1h-4.5v-1.6h10.8v1.6h-4.5v12.1H166.9z"/>
	<path class="st0" d="M179.2,142.2c-0.6,0.5-1.2,0.9-1.8,1.1s-1.2,0.3-1.9,0.3c-1.1,0-1.9-0.3-2.5-0.8s-0.9-1.2-0.9-2
		c0-0.5,0.1-0.9,0.3-1.3s0.5-0.7,0.9-1c0.4-0.2,0.8-0.4,1.2-0.6c0.3-0.1,0.8-0.2,1.5-0.3c1.4-0.2,2.4-0.4,3-0.6c0-0.2,0-0.4,0-0.4
		c0-0.7-0.2-1.2-0.5-1.4c-0.4-0.4-1.1-0.6-1.9-0.6c-0.8,0-1.4,0.1-1.7,0.4c-0.4,0.3-0.7,0.8-0.8,1.5l-1.6-0.2
		c0.1-0.7,0.4-1.3,0.7-1.7c0.3-0.4,0.8-0.8,1.5-1c0.6-0.2,1.4-0.4,2.2-0.4c0.8,0,1.5,0.1,2.1,0.3c0.5,0.2,0.9,0.4,1.2,0.8
		s0.4,0.7,0.5,1.1c0.1,0.3,0.1,0.8,0.1,1.5v2.2c0,1.6,0,2.5,0.1,3s0.2,0.8,0.4,1.2h-1.8C179.4,143.1,179.3,142.7,179.2,142.2z
		 M179.1,138.5c-0.6,0.2-1.5,0.5-2.7,0.6c-0.7,0.1-1.2,0.2-1.5,0.3s-0.5,0.3-0.7,0.5c-0.2,0.2-0.2,0.5-0.2,0.8
		c0,0.4,0.2,0.8,0.5,1.1c0.3,0.3,0.8,0.4,1.5,0.4c0.6,0,1.2-0.1,1.7-0.4c0.5-0.3,0.9-0.7,1.1-1.2c0.2-0.4,0.3-0.9,0.3-1.7V138.5z"/>
	<path class="st0" d="M183.1,144.3l1.6,0.2c0.1,0.5,0.3,0.9,0.6,1.1c0.4,0.3,1,0.5,1.7,0.5c0.8,0,1.4-0.2,1.8-0.5s0.7-0.7,0.9-1.3
		c0.1-0.3,0.1-1.1,0.1-2.2c-0.7,0.9-1.6,1.3-2.7,1.3c-1.4,0-2.4-0.5-3.2-1.5s-1.1-2.2-1.1-3.5c0-0.9,0.2-1.8,0.5-2.6
		s0.8-1.4,1.5-1.9c0.6-0.4,1.4-0.7,2.3-0.7c1.2,0,2.1,0.5,2.9,1.4v-1.2h1.5v8.6c0,1.5-0.2,2.6-0.5,3.3c-0.3,0.6-0.8,1.2-1.5,1.5
		c-0.7,0.4-1.5,0.6-2.5,0.6c-1.2,0-2.1-0.3-2.9-0.8C183.4,146.2,183.1,145.4,183.1,144.3z M184.5,138.3c0,1.3,0.3,2.2,0.8,2.8
		s1.2,0.9,1.9,0.9c0.8,0,1.4-0.3,1.9-0.9c0.5-0.6,0.8-1.5,0.8-2.8c0-1.2-0.3-2.1-0.8-2.7s-1.2-0.9-1.9-0.9c-0.7,0-1.4,0.3-1.9,0.9
		C184.7,136.2,184.5,137.1,184.5,138.3z"/>
	<path class="st0" d="M194,143.5v-13.7h1.7v13.7H194z"/>
	<path class="st0" d="M198.3,131.7v-1.9h1.7v1.9H198.3z M198.3,143.5v-9.9h1.7v9.9H198.3z"/>
	<path class="st0" d="M202.5,143.5v-9.9h1.5v1.4c0.7-1.1,1.8-1.6,3.2-1.6c0.6,0,1.1,0.1,1.6,0.3c0.5,0.2,0.9,0.5,1.1,0.8
		s0.4,0.8,0.5,1.2c0.1,0.3,0.1,0.9,0.1,1.6v6.1h-1.7v-6c0-0.7-0.1-1.2-0.2-1.5c-0.1-0.3-0.4-0.6-0.7-0.8c-0.3-0.2-0.7-0.3-1.2-0.3
		c-0.7,0-1.3,0.2-1.9,0.7s-0.8,1.3-0.8,2.6v5.4H202.5z"/>
	<path class="st0" d="M219.9,140.3l1.7,0.2c-0.3,1-0.8,1.8-1.5,2.4c-0.7,0.6-1.7,0.8-2.8,0.8c-1.4,0-2.6-0.4-3.4-1.3
		c-0.8-0.9-1.3-2.1-1.3-3.8c0-1.7,0.4-3,1.3-3.9c0.9-0.9,2-1.4,3.3-1.4c1.3,0,2.4,0.5,3.2,1.4s1.3,2.2,1.3,3.8c0,0.1,0,0.2,0,0.4
		h-7.4c0.1,1.1,0.4,1.9,0.9,2.5c0.6,0.6,1.2,0.9,2.1,0.9c0.6,0,1.1-0.2,1.6-0.5C219.3,141.5,219.7,141,219.9,140.3z M214.4,137.6
		h5.5c-0.1-0.8-0.3-1.5-0.6-1.9c-0.5-0.6-1.2-1-2.1-1c-0.8,0-1.4,0.3-1.9,0.8C214.8,136,214.5,136.7,214.4,137.6z"/>
</g>
<g id="XMLID_64_">
	<g id="XMLID_94_">
		<path id="XMLID_125_" class="st1" d="M197,0.4c-19.2,0-34.8,15.6-34.8,34.8c0,0,0,0.1,0,0.1c0.1-16.8,13.7-30.4,30.5-30.4
			c1.5,0,2.9,0.1,4.3,0.3c13.2,1.9,23.6,12.2,25.7,25.3c0.2,1.3,0.4,2.7,0.4,4.1c0,0.2,0,0.4,0,0.6c0,0.2,0,0.4,0,0.6
			c0,0.4,0,0.8-0.1,1.2c0-0.1,0-0.2,0-0.3C222.4,48,213,57.1,201.4,57.1c-1.5,0-3-0.2-4.4-0.4c-9.9-2-17.4-10.9-17.4-21.4
			c0-9.6,7.8-17.4,17.4-17.4c9.6,0,17.4,7.8,17.4,17.4c0-10.6-7.5-19.4-17.4-21.4c-1.4-0.3-2.9-0.4-4.4-0.4
			c-11.2,0-20.5,8.5-21.7,19.4c-0.1,0.9-0.1,1.8-0.1,2.7c0,0.3,0,0.6,0,0.9c0,0.1,0,0.2,0,0.3c0.6,14.8,11.7,26.9,26.1,29
			c1.4,0.2,2.9,0.3,4.3,0.3c15.8,0,28.8-12,30.3-27.4c0.1-0.8,0.1-1.6,0.1-2.4c0-0.3,0-0.7,0-1C231.8,16,216.2,0.4,197,0.4z"/>
		<g id="XMLID_122_">
			<defs>
				<path id="XMLID_88_" d="M201.3,66c-1.5,0-2.9-0.1-4.3-0.3c-14.4-2.1-25.5-14.2-26.1-29c0-0.3,0-0.6,0-0.9c0-0.2,0-0.4,0-0.6
					c0-0.2,0-0.4,0-0.6c0-1.3,0.1-2.5,0.4-3.8c-0.1,0.6-0.2,1.3-0.2,1.9c1.2-10.9,10.4-19.4,21.7-19.4c1.5,0,3,0.2,4.4,0.4
					c9.9,2,17.4,10.9,17.4,21.4c0,9.6-7.8,17.4-17.4,17.4c-9.6,0-17.4-7.8-17.4-17.4c0,10.6,7.5,19.4,17.4,21.4
					c1.4,0.3,2.9,0.4,4.4,0.4c11.6,0,21-9,21.8-20.5c0-0.4,0-0.8,0-1.2c0-1,0-1.9-0.1-2.8c-0.1-0.7-0.2-1.4-0.3-2.1
					c-2.1-13.1-12.6-23.4-25.7-25.3c-1.4-0.2-2.9-0.3-4.3-0.3c-16.8,0-30.4,13.6-30.5,30.4c0,1.2,0.1,2.3,0.2,3.4
					C164.2,56.3,179,70,197,70c18.1,0,32.9-13.8,34.6-31.4C230,54,217.1,66,201.3,66z"/>
			</defs>
			<use xlink:href="#XMLID_88_"  style="overflow:visible;fill:#FFFFFF;"/>
			<clipPath id="XMLID_2_">
				<use xlink:href="#XMLID_88_"  style="overflow:visible;"/>
			</clipPath>
		</g>
	</g>
</g>
<g>
</g>
<g>
</g>
<g>
</g>
<g>
</g>
<g>
</g>
<g>
</g>
<g>
</g>
<g>
</g>
<g>
</g>
<g>
</g>
<g>
</g>
<g>
</g>
<g>
</g>
<g>
</g>
<g>
</g>
</svg>
