<?xml version="1.0" encoding="utf-8"?>
<!-- Generator: Adobe Illustrator 21.1.0, SVG Export Plug-In . SVG Version: 6.00 Build 0)  -->
<svg version="1.1" id="Layer_1" xmlns="http://www.w3.org/2000/svg" xmlns:xlink="http://www.w3.org/1999/xlink" x="0px" y="0px"
	 viewBox="0 0 186.9 148.4" style="enable-background:new 0 0 186.9 148.4;" xml:space="preserve">
<style type="text/css">
	.st0{fill:#F7D518;}
	.st1{opacity:0.75;fill:#FFFFFF;}
</style>
<g>
	<path class="st0" d="M114.4,28.2c0,0,13.6-11.6,9.8-28.2c0,0,38.6,23.2,27,63c0,0-6.1-9.9-16.3-19.2S114.4,28.2,114.4,28.2z"/>
	<path class="st1" d="M0,4.7c0,0,46.4,13.2,60.2,66.5c0,0,22-16.9,47-12.5c0,0-63.4,20.7-84.1,89.7c0,0,53.9-84.1,163.7-71.8
		c0,0-20.7-19.1-35.8-13.5C151.2,63,112.3-4.7,0,4.7z"/>
</g>
</svg>
